<svg width="512" height="512" viewBox="0 0 512 512" fill="none" xmlns="http://www.w3.org/2000/svg">
<path d="M52.1 33.6C35.2 38.1 22 51.6 17.5 68.7C15.2 77.4 15.3 338.7 17.5 347.5C22 364.7 35.4 378 52.7 382.5C57.1 383.7 64.7 384 85.2 384H111.9L112.2 426.9C112.5 468.5 112.6 469.9 114.6 472.6C118.5 477.8 121.7 479.5 127.9 479.5C132.7 479.5 134.3 479 137.6 476.6C139.7 474.9 166.8 453.5 197.6 428.8L253.8 384H353.7C463.5 384 459.2 384.2 471.1 377.9C482.6 371.7 492.5 358.2 495 345.1C495.6 341.6 496 293.1 496 207.1C496 91.2 495.8 73.7 494.5 68.5C490 51.3 476.6 38 459.3 33.5C450.8 31.3 60.4 31.4 52.1 33.6ZM392.6 162.6C397.9 166.5 399.5 169.7 399.5 176C399.5 182.3 397.9 185.5 392.6 189.4C389.9 191.5 389.4 191.5 258.2 191.8C167.7 192 125.4 191.8 122.8 191C112.7 188.1 108.8 174.2 115.7 165.9C120.9 159.7 112.4 160 257.2 160.3C389.5 160.5 389.9 160.5 392.6 162.6ZM264.6 226.6C269.9 230.5 271.5 233.7 271.5 240C271.5 246.3 269.9 249.5 264.6 253.4C261.9 255.5 260.7 255.5 194.2 255.8C148.5 256 125.3 255.8 122.8 255C112.7 252.1 108.8 238.2 115.7 229.9C120.8 223.8 118.2 224 193.2 224.3C260.8 224.5 261.9 224.5 264.6 226.6Z" fill="#A0A0A0"/>
</svg>
