<svg width="512" height="512" viewBox="0 0 512 512" fill="none" xmlns="http://www.w3.org/2000/svg">
<path d="M74.9 35.1C47.1 38.1 24.9 57.5 17.9 84.8C16.1 92 16 97 16 207C16 317.9 16.1 321.9 18 329.4C21.1 341.7 26.1 350.3 35.9 360C42.4 366.4 46.4 369.5 52 372.2C60.2 376.3 70.1 379 76.8 379H81V427C81 460.5 81.3 475 82.1 475C82.7 475 112.5 454.6 148.3 429.6C184.2 404.7 215.3 383.1 217.4 381.6L221.3 379H330.5H439.8L447.6 376.7C470 370.2 487.2 352.7 493.7 330C495.4 323.9 495.5 317 495.5 207C495.5 97 495.4 90.1 493.7 84C488.5 65.8 475.7 49.8 460 42.2C443 33.8 461.4 34.6 261 34.4C162.8 34.3 79.1 34.6 74.9 35.1ZM442.5 65.1C452.9 69 460.8 76.8 465.2 87.7L467.5 93.5V207V320.5L465.2 326.3C460.8 337.2 452.9 345 442.5 348.9C437 351 436 351 324.5 351H212L161.3 386.3L110.5 421.7L110 386.6L109.5 351.5L91 351C78.9 350.6 71.3 349.9 69 349C59.5 345.3 52.1 338.4 47.6 329L44.5 322.5V207V91.5L47.2 85.8C50.8 78 54.5 73.6 60.8 69.4C70.7 62.8 57.1 63.2 255.7 63.1L436.9 63L442.5 65.1Z" fill="#B4B4B4"/>
<path d="M144 148V162H255.5H367V148V134H255.5H144V148Z" fill="#B4B4B4"/>
<path d="M144 208V222H255.5H367V208V194H255.5H144V208Z" fill="#B4B4B4"/>
<path d="M144 268V282H255.5H367V268V254H255.5H144V268Z" fill="#B4B4B4"/>
</svg>
