<svg width="24" height="24" viewBox="0 0 24 24" fill="none" xmlns="http://www.w3.org/2000/svg">
<path d="M10.9216 0.0428143C9.4915 0.17882 7.89262 0.633736 6.65479 1.25749C5.37475 1.90469 4.03375 2.92708 3.11475 3.95884C1.31426 5.98486 0.292105 8.3251 0.0435991 10.9889C-0.148641 13.0806 0.301482 15.4396 1.26268 17.3437C1.90974 18.624 2.93189 19.9653 3.96342 20.8845C5.98898 22.6854 8.32868 23.7078 10.9919 23.9564C13.0831 24.1487 15.4416 23.6984 17.3452 22.737C18.6253 22.0898 19.9662 21.0674 20.8852 20.0357C22.6857 18.0097 23.7079 15.6694 23.9564 13.0056C24.1486 10.9139 23.6985 8.5549 22.7373 6.65082C22.0903 5.37049 21.0681 4.02919 20.0366 3.10998C18.011 1.30908 15.6713 0.286687 13.0081 0.0381244C12.422 -0.013464 11.5077 -0.013464 10.9216 0.0428143Z" fill="#FF0000"/>
<path d="M11.4208 5.01948C9.77571 5.18097 8.24562 5.88716 7.07137 7.02856C5.94912 8.11795 5.29767 9.40443 5.05132 11.0111C4.98289 11.4573 4.98289 12.5987 5.05132 13.023C5.26482 14.3833 5.83963 15.5877 6.77849 16.647C7.37793 17.3231 8.13066 17.8951 8.97097 18.3057C9.89067 18.7573 10.6954 18.9599 11.7082 18.9955C13.4299 19.0557 15.0557 18.5137 16.4079 17.4298C16.7665 17.1424 16.8267 17.0548 16.8267 16.814C16.8267 16.5348 16.6926 16.3623 16.4189 16.2884C16.2519 16.2446 16.074 16.2912 15.9234 16.4198C15.6908 16.6196 15.2008 16.9754 14.9764 17.1123C12.9782 18.3057 10.3888 18.1305 8.40985 16.6689C8.10602 16.4444 7.59964 15.9572 7.36151 15.6643C6.4774 14.5695 6.03945 13.231 6.09145 11.7776C6.1243 10.8715 6.3159 10.1079 6.69911 9.35516C7.5668 7.64169 9.24469 6.45649 11.2292 6.14993C11.6562 6.0815 12.4937 6.0815 12.9125 6.14719C13.9636 6.31142 14.9463 6.75484 15.7455 7.42819C16.0302 7.66632 16.1725 7.73749 16.3395 7.71833C16.7117 7.67727 16.9444 7.27491 16.7856 6.94918C16.6625 6.69189 15.7811 6.04592 15.0913 5.70377C14.4344 5.38078 13.7912 5.17549 13.0822 5.06875C12.6634 5.00579 11.8176 4.97842 11.4208 5.01948Z" fill="white"/>
<path d="M16.1068 8.961C15.9782 8.99932 15.8085 9.17723 15.7701 9.31957C15.7346 9.45643 15.7537 9.64255 15.8167 9.7493C15.8386 9.78762 16.2984 10.2475 16.8322 10.7648C17.8477 11.7502 17.9079 11.8186 17.9079 12.0376C17.9079 12.2566 17.8477 12.325 16.8075 13.3514C15.7647 14.3779 15.7455 14.3998 15.7455 14.6215C15.7455 14.9089 16.0083 15.1716 16.293 15.1716C16.5037 15.1716 16.5475 15.1361 17.5876 14.1178C18.6579 13.0722 18.792 12.9162 18.9097 12.5768C19.0548 12.158 19.0247 11.7392 18.8221 11.3204C18.7044 11.0714 18.688 11.0549 18.0502 10.4281C16.6707 9.07322 16.5831 8.99384 16.4681 8.961C16.3422 8.92541 16.23 8.92541 16.1068 8.961Z" fill="white"/>
<path d="M8.68906 11.4792C8.50566 11.5339 8.32775 11.7885 8.32775 11.9965C8.32775 12.221 8.50293 12.4536 8.71369 12.5139C8.80676 12.5385 9.71824 12.544 12.6525 12.5385L16.4709 12.5303L16.5749 12.4646C16.6324 12.429 16.7118 12.3496 16.7528 12.2894C16.8158 12.1963 16.8267 12.1471 16.8267 11.9938C16.8267 11.8323 16.8158 11.794 16.7446 11.6927C16.7008 11.6297 16.6077 11.5476 16.542 11.512L16.4216 11.4491L12.6005 11.4518C10.2821 11.4518 8.7438 11.4655 8.68906 11.4792Z" fill="white"/>
</svg>
